<?xml version="1.0" encoding="UTF-8"?>
<svg version="1.1" xmlns="http://www.w3.org/2000/svg" width="1426" height="321">
<path d="M0 0 C0.66959747 0.00304138 1.33919495 0.00608276 2.02908325 0.00921631 C34.72774589 0.22750815 62.92263061 12.16157342 86.65625 34.58984375 C88.64976837 36.29805786 90.41691615 37.39759883 92.8125 38.4375 C93.28816406 37.91542969 93.76382812 37.39335938 94.25390625 36.85546875 C114.73873735 15.31432961 144.15728199 1.24496801 173.9609375 0.15625 C210.44188947 -0.61822992 242.74413858 10.23378947 269.40576172 35.56054688 C276.51778682 42.5536809 282.39628876 50.07938986 287.8125 58.4375 C288.44671875 59.39914063 289.0809375 60.36078125 289.734375 61.3515625 C293.25942029 67.01347153 296.01032563 72.89147796 298.5 79.0625 C298.77352295 79.7234668 299.0470459 80.38443359 299.32885742 81.06542969 C305.23861501 96.41758328 306.3922658 111.58540872 306.26660156 127.85009766 C306.26547023 129.93154376 306.2661125 132.01299146 306.26837158 134.09443665 C306.26950852 139.68631136 306.24616628 145.27783541 306.21807575 150.86962938 C306.19289011 156.73520104 306.19070667 162.60078276 306.18597412 168.46640015 C306.17359441 179.5475335 306.14084118 190.62850699 306.10057616 201.70957029 C306.05570181 214.33608519 306.03383218 226.96260816 306.01379442 239.58918309 C305.97210362 265.53871032 305.9018499 291.48809616 305.8125 317.4375 C304.06646887 317.46053306 302.32034896 317.47689389 300.57421875 317.49047852 C299.60186279 317.50031265 298.62950684 317.51014679 297.62768555 317.52027893 C293.7780728 317.40708326 290.44273282 316.59905079 286.8125 315.375 C285.7913208 315.04000488 285.7913208 315.04000488 284.74951172 314.69824219 C269.3681584 309.36429801 257.05087566 297.99634318 249.37890625 283.78125 C243.8309532 272.32316298 242.36663747 261.31546834 242.42773438 248.69555664 C242.42361851 247.25676547 242.41815168 245.81797763 242.41145325 244.37919617 C242.39981572 241.3051075 242.39721226 238.23119793 242.40180969 235.15709114 C242.40867871 230.28395228 242.39265061 225.41104467 242.37341309 220.53794861 C242.33571884 210.19197803 242.3227834 199.8460287 242.3125 189.5 C242.30139468 178.32976714 242.28586695 167.15964282 242.24178743 155.98948377 C242.22356312 151.15758794 242.21949088 146.32596144 242.22672272 141.49403965 C242.22825748 138.47456814 242.21738057 135.45522833 242.20334435 132.43579292 C242.19751238 130.39517743 242.20637988 128.35453596 242.21589661 126.31393433 C242.10053733 108.79313297 237.23411978 93.18148015 224.8125 80.4375 C212.15501264 69.49204361 196.85119044 63.65617676 180.05859375 64.16015625 C163.86942102 65.5433467 149.72279244 72.3386066 138.8125 84.4375 C126.11183171 100.87365896 124.51540058 118.00942043 124.49365234 137.95385742 C124.48434139 139.91605029 124.474171 141.87823924 124.46321106 143.84042358 C124.43602859 149.1391817 124.42079665 154.4379134 124.40778303 159.73672271 C124.39210084 165.28474295 124.36532694 170.83270966 124.3397522 176.38069153 C124.29305426 186.87405609 124.25626676 197.36743082 124.22307932 207.86084586 C124.18479431 219.81253916 124.13540092 231.76417859 124.08509517 243.71582639 C123.981909 268.28967761 123.89260546 292.86356347 123.8125 317.4375 C122.37820187 317.45149419 120.94386404 317.46145559 119.50952148 317.46972656 C118.7107811 317.47570862 117.91204071 317.48169067 117.08909607 317.487854 C100.58445985 317.12280263 85.82657033 307.26667762 74.80859375 295.77734375 C62.2187328 281.01936585 59.49809275 263.55457907 59.55712891 244.78735352 C59.55437158 243.35841676 59.55068722 241.92948155 59.54615784 240.50054932 C59.53810971 237.44777409 59.53586109 234.39507182 59.53810501 231.34228706 C59.54096412 226.50278491 59.52649066 221.66342566 59.50912476 216.82395935 C59.46234207 203.07073075 59.43816462 189.31751377 59.43164062 175.56420898 C59.42787636 167.94954488 59.40974356 160.33504468 59.37654626 152.72045082 C59.3564732 147.92195356 59.35389134 143.12388303 59.36482644 138.32536137 C59.36745532 135.32660267 59.35332549 132.32808666 59.33474541 129.32939148 C59.32698953 127.30309254 59.33877426 125.27674731 59.35142517 123.25047302 C59.2051874 106.83349632 53.53155989 92.65150801 42.2265625 80.72265625 C28.96277654 68.1671307 13.98645708 63.7712979 -3.8203125 64.1953125 C-18.19149547 64.81534218 -31.59988484 71.86128656 -41.78515625 81.77734375 C-50.65321341 91.59709485 -57.28300994 104.93755559 -57.33226013 118.33580017 C-57.33915863 119.54256409 -57.34605713 120.749328 -57.35316467 121.99266052 C-57.35587923 123.32705673 -57.3585164 124.66145311 -57.36108398 125.99584961 C-57.36739201 127.40390222 -57.37415809 128.81195284 -57.38134766 130.22000122 C-57.39600732 133.2521568 -57.40773674 136.28430474 -57.41729546 139.31648064 C-57.4327817 144.12171374 -57.45673475 148.92688165 -57.48219299 153.73207092 C-57.55329312 167.39661524 -57.61298674 181.06119768 -57.66430664 194.72583008 C-57.69272648 202.27301474 -57.72817511 209.82013523 -57.77096039 217.36725241 C-57.79755529 222.13216365 -57.81556959 226.89700236 -57.82699764 231.66197288 C-57.83620802 234.64538292 -57.85360917 237.62870598 -57.87317657 240.61206436 C-57.88405895 242.6288791 -57.88539475 244.64573851 -57.88630676 246.6625824 C-58.04323656 266.55900434 -62.44380364 284.39416385 -76.4375 299.1875 C-89.14652864 311.229896 -104.82578447 317.51144069 -122.1875 317.4375 C-122.28118323 290.64584686 -122.35159639 263.85421848 -122.39474869 237.0624342 C-122.4153228 224.6209126 -122.44334438 212.17949313 -122.48925781 199.73803711 C-122.52928383 188.88670269 -122.55497019 178.03544228 -122.56385398 167.18403608 C-122.56904213 161.44497178 -122.58112754 155.70611911 -122.61042023 149.96712303 C-122.63783906 144.55068632 -122.64589222 139.13454572 -122.63993073 133.71804619 C-122.64101925 131.74417759 -122.64881375 129.7702977 -122.6643219 127.79648972 C-122.93264307 91.8416977 -110.09878946 60.33441565 -84.9375 34.625 C-62.31052383 12.2796272 -31.75617331 -0.25297325 0 0 Z " fill="#0B5CFF" transform="translate(1120.1875,-0.4375)"/>
<path d="M0 0 C0.72849152 -0.00974854 1.45698303 -0.01949707 2.20755005 -0.02954102 C18.55035564 -0.2032182 34.20407009 0.04190771 50.1171875 4.23828125 C50.82601074 4.4202002 51.53483398 4.60211914 52.26513672 4.78955078 C86.18072593 13.75518847 117.97729155 34.09047107 139.1171875 62.23828125 C139.90351562 63.24761719 140.68984375 64.25695312 141.5 65.296875 C167.39511762 99.28740908 175.94622189 141.88325011 171.65625 183.8359375 C171.0837419 188.0445967 170.19863691 192.13320726 169.1171875 196.23828125 C168.81119629 197.4281665 168.81119629 197.4281665 168.49902344 198.64208984 C162.56495762 221.15612557 152.86269401 242.11359617 138.1171875 260.23828125 C137.66472656 260.79757324 137.21226562 261.35686523 136.74609375 261.93310547 C109.66780518 295.18473016 70.88669182 316.59896492 28.1171875 321.23828125 C22.31006795 321.61254541 16.49670413 321.62769793 10.6796875 321.61328125 C9.8899353 321.61306976 9.10018311 321.61285828 8.28649902 321.61264038 C-4.77575752 321.57783189 -17.20485474 320.59316496 -29.8828125 317.23828125 C-30.60227051 317.05104492 -31.32172852 316.86380859 -32.06298828 316.67089844 C-36.75366429 315.4109117 -41.32322936 313.90790683 -45.8828125 312.23828125 C-46.55054688 311.99770996 -47.21828125 311.75713867 -47.90625 311.50927734 C-65.58948616 305.02403389 -81.63842683 295.54421077 -95.8828125 283.23828125 C-96.41487305 282.77921387 -96.94693359 282.32014648 -97.49511719 281.84716797 C-129.90951199 253.58110286 -148.92050172 214.73002159 -152.6328125 171.98828125 C-155.43306589 127.94793246 -140.36247011 86.43256859 -111.5612793 53.37182617 C-105.91710096 47.01798134 -100.03975922 41.07987349 -93.3203125 35.86328125 C-92.41804932 35.16174927 -92.41804932 35.16174927 -91.49755859 34.44604492 C-80.37481521 25.92092375 -68.59614336 19.10670882 -55.8828125 13.23828125 C-54.738125 12.70332031 -53.5934375 12.16835937 -52.4140625 11.6171875 C-36.20375443 4.5890697 -17.68733338 0.19804462 0 0 Z M-65.34765625 96.890625 C-82.41170883 116.75493237 -90.60922447 141.93288411 -89.06298828 168.00830078 C-86.98031949 193.78485458 -74.43522617 218.29690419 -54.8828125 235.23828125 C-41.18475977 246.32883663 -26.13559984 253.58984235 -8.8828125 257.23828125 C-7.99464844 257.4290625 -7.10648437 257.61984375 -6.19140625 257.81640625 C22.93900495 261.53079162 49.27491505 254.33006678 72.49609375 236.70703125 C92.63647917 220.85290268 105.04116801 197.790159 108.26757812 172.48242188 C110.97516426 147.19319897 104.88360452 121.85633801 88.9921875 101.67578125 C87.71211826 100.18656684 86.4211668 98.70660505 85.1171875 97.23828125 C84.55515625 96.54605469 83.993125 95.85382813 83.4140625 95.140625 C68.7149628 77.31624944 44.92720843 65.82568661 22.1171875 63.23828125 C-12.6024833 61.34619225 -41.48579561 71.21359905 -65.34765625 96.890625 Z " fill="#0B5CFF" transform="translate(444.8828125,-0.23828125)"/>
<path d="M0 0 C0.81355957 0.19867676 1.62711914 0.39735352 2.46533203 0.60205078 C45.49714933 11.25823258 82.16761569 38.22396654 105.29052734 76.11474609 C127.22168094 113.5494101 132.32068873 157.86448145 121.53515625 199.59765625 C110.17264367 240.95600519 82.51237519 276.30637036 45.35546875 297.734375 C7.7478179 318.62058175 -38.04414672 324.44189413 -79.60107422 312.99902344 C-89.43695529 310.15057308 -98.80239667 306.48634706 -108 302 C-108.63244629 301.69336426 -109.26489258 301.38672852 -109.91650391 301.07080078 C-125.85410207 293.23403635 -139.09278189 282.922005 -151.6171875 270.37890625 C-152.98843001 269.00991168 -154.37847783 267.65814905 -155.81640625 266.359375 C-175.999922 247.75622401 -189.33949917 218.44301598 -195 192 C-195.14808105 191.34402832 -195.29616211 190.68805664 -195.44873047 190.01220703 C-200.12079599 168.68364956 -200.04530803 144.26432813 -195 123 C-194.80664062 122.17419434 -194.61328125 121.34838867 -194.4140625 120.49755859 C-188.13333961 94.58473042 -176.00594905 72.36766664 -159 52 C-158.27683594 51.13375 -157.55367187 50.2675 -156.80859375 49.375 C-152.55665405 44.44907377 -148.03795656 40.11143581 -143 36 C-142.50226074 35.58991699 -142.00452148 35.17983398 -141.49169922 34.75732422 C-133.39610112 28.11668433 -125.15025733 22.142381 -116 17 C-115.42652832 16.67435059 -114.85305664 16.34870117 -114.26220703 16.01318359 C-81.00226647 -2.5996781 -37.24134796 -9.62825094 0 0 Z M-111.4831543 93.76489258 C-125.53073511 110.01533907 -133.85812401 130.51196998 -135 152 C-135.05285156 152.79019531 -135.10570312 153.58039063 -135.16015625 154.39453125 C-136.07460953 180.2775351 -126.12312687 204.88517797 -108.93359375 223.9375 C-91.67202033 242.30655092 -67.64641913 254.4504693 -42.203125 255.30078125 C-40.21884132 255.32021564 -38.2343469 255.32376007 -36.25 255.3125 C-35.19941406 255.30686035 -34.14882813 255.3012207 -33.06640625 255.29541016 C-5.90141675 254.87356761 17.30427659 243.27767713 36.49609375 224.56640625 C54.5564396 205.50444677 63.47003135 180.28215716 63.2109375 154.19140625 C62.14115224 126.25152098 49.59232932 102.72476449 29.625 83.6875 C-11.97100431 47.3277678 -75.14805398 53.47537043 -111.4831543 93.76489258 Z " fill="#0B5CFF" transform="translate(840,3)"/>
<path d="M0 0 C30.2429075 -0.06851351 60.485811 -0.12156806 90.72877865 -0.15319599 C94.30339813 -0.15694788 97.87801746 -0.16083087 101.45263672 -0.16479492 C102.52005053 -0.16597532 102.52005053 -0.16597532 103.60902825 -0.16717956 C115.11459581 -0.18021523 126.62011817 -0.20385888 138.12565896 -0.23145839 C149.94112374 -0.25956388 161.75656494 -0.27618711 173.57206178 -0.28226548 C180.20455082 -0.28600389 186.83695597 -0.29533227 193.46941376 -0.31719017 C199.71723476 -0.33761286 205.96491162 -0.34382206 212.21276283 -0.33932304 C214.50078681 -0.34014565 216.78881581 -0.34607662 219.07681084 -0.35761642 C237.48232772 -0.44586236 253.86460849 0.51607193 267.9609375 13.765625 C276.17289716 22.76417084 279.9672968 33.93252037 280 46 C279.04291709 61.68783728 270.96549096 72.53693936 260 83 C258.80519591 84.03956856 257.60475672 85.07268248 256.39990234 86.10058594 C251.52025935 90.35473268 246.96840087 94.90641931 242.40625 99.49609375 C240.98689956 100.91768569 239.56754899 102.3392775 238.14819336 103.76086426 C236.63779531 105.27461213 235.12865277 106.78960135 233.61987305 108.30496216 C230.46096582 111.47750463 227.29814687 114.64612846 224.13476562 117.81420898 C217.42019501 124.53983342 210.70987209 131.26968853 204 138 C196.75363784 145.26843578 189.50652817 152.53611696 182.25450897 159.79890919 C179.11670216 162.9416668 175.9813422 166.08683833 172.84790039 169.23394775 C171.36480062 170.72274253 169.88053444 172.21036278 168.39575195 173.69747925 C166.59483381 175.50124149 164.79569149 177.30677946 162.9987793 179.11453247 C158.73273995 183.38094439 154.392205 187.47439158 149.81837463 191.40844917 C147.08062476 193.80469249 144.51356824 196.35429067 141.95117188 198.93530273 C141.13011963 199.75613594 141.13011963 199.75613594 140.29248047 200.59355164 C138.51551775 202.37120121 136.74210597 204.15234678 134.96875 205.93359375 C133.72486987 207.17934244 132.48076619 208.42486795 131.2364502 209.67018127 C127.98580985 212.92461236 124.73818572 216.18203681 121.49121094 219.44012451 C118.16785548 222.77376868 114.8416142 226.10453077 111.515625 229.43554688 C105.00761191 235.95423646 98.50278617 242.47609653 92 249 C93.17888511 249.00219984 93.17888511 249.00219984 94.38158607 249.00444412 C113.5555324 249.0415884 132.72929768 249.10070366 151.90310097 249.18390274 C161.17563775 249.22361517 170.44809062 249.25604711 179.72070312 249.27099609 C187.80811629 249.28405319 195.89534422 249.31112068 203.98265302 249.35461307 C208.25996011 249.37713713 212.53703951 249.39291616 216.81441116 249.39188385 C220.85124087 249.39113183 224.88756899 249.40929686 228.92426872 249.44116783 C230.39546732 249.44959532 231.86672266 249.45146619 233.33793449 249.44580269 C251.34060976 249.38580196 266.57992786 254.19299109 279.7265625 266.73828125 C280.47679687 267.48464844 281.22703125 268.23101562 282 269 C282.62648438 269.59167969 283.25296875 270.18335938 283.8984375 270.79296875 C293.2979426 280.42639819 299.11091728 294.4074917 299.03125 307.76171875 C299.02673828 308.74487061 299.02222656 309.72802246 299.01757812 310.7409668 C299.00887695 311.85918823 299.00887695 311.85918823 299 313 C266.08181014 313.06873063 233.16363897 313.1215615 200.24539368 313.15319599 C196.35532744 313.15694792 192.46526134 313.1608309 188.57519531 313.16479492 C187.8007832 313.16558185 187.02637108 313.16636878 186.22849193 313.16717956 C173.70444842 313.1802183 161.1804464 313.20386366 148.65642747 313.23145839 C135.796831 313.2595553 122.93725619 313.27618531 110.07763028 313.28226548 C102.14843004 313.28637305 94.2193471 313.2993264 86.29018298 313.3237494 C80.20065414 313.34154574 74.11122529 313.34335483 68.02166748 313.33932304 C65.53046193 313.34014627 63.03925181 313.34608546 60.54807281 313.35761642 C57.13644108 313.37262921 53.72530379 313.36892136 50.31365967 313.36076355 C49.33696721 313.36950207 48.36027475 313.3782406 47.35398555 313.38724393 C34.33506677 313.30358865 22.56588065 309.63606703 12.6796875 300.96484375 C2.49060409 290.29148831 -0.5093705 278.84073898 -0.27734375 264.5625 C0.27717457 251.12163801 8.50645047 241.01505776 17.71435547 231.92919922 C18.46315979 231.17835052 19.21196411 230.42750183 19.98345947 229.65390015 C22.43752102 227.19685354 24.90209796 224.75066572 27.3671875 222.3046875 C29.08881095 220.58612625 30.80984023 218.86696958 32.53030396 217.14724731 C36.12844806 213.55369234 39.73142698 209.96508501 43.33837891 206.38037109 C47.94712435 201.7999064 52.54715158 197.21081212 57.14401054 192.61842155 C61.54858721 188.21901664 65.95783198 183.82430174 70.3671875 179.4296875 C71.20046444 178.59829128 72.03374138 177.76689507 72.89226913 176.91030502 C75.26789299 174.54160596 77.64685147 172.17630874 80.02685547 169.81201172 C80.7180246 169.12196045 81.40919373 168.43190918 82.12130737 167.72094727 C85.30575744 164.5641055 88.52731138 161.50455326 91.92520142 158.57777405 C96.5538071 154.57681904 100.85493818 150.27767367 105.16992188 145.94360352 C106.04891144 145.06475998 106.927901 144.18591644 107.83352661 143.28044128 C110.21909218 140.89430263 112.60243218 138.50598285 114.98476982 136.11662412 C117.48400771 133.61109142 119.9861197 131.10843209 122.48791504 128.60545349 C127.21415202 123.87612114 131.93783634 119.14424783 136.66058588 114.41143316 C142.0419887 109.01881321 147.42626612 103.62906728 152.8107748 98.2395488 C163.87702865 87.16287123 174.93970635 76.08262916 186 65 C185.04391956 64.99503478 185.04391956 64.99503478 184.06852436 64.98996925 C168.50842911 64.90849669 152.94843869 64.81632648 137.38847828 64.71247292 C129.86357944 64.66250252 122.33869065 64.61605883 114.8137207 64.578125 C108.24952393 64.54502531 101.68540892 64.50509714 95.12130278 64.45720994 C91.65059835 64.43212216 88.17994691 64.4102903 84.70917702 64.39665604 C80.82009899 64.38124987 76.93121684 64.35058775 73.04223633 64.31884766 C71.91078186 64.31668747 70.77932739 64.31452728 69.61358643 64.31230164 C48.77293918 64.09649223 31.26796726 58.50005175 16 44 C6.64271465 33.3843211 -0.1360596 20.04157868 -0.0390625 5.75390625 C-0.03342285 4.67568604 -0.0277832 3.59746582 -0.02197266 2.48657227 C-0.01472168 1.66600342 -0.0074707 0.84543457 0 0 Z " fill="#0B5CFF" transform="translate(0,4)"/>
</svg>
